<?xml version="1.0" standalone="no"?>
<!DOCTYPE svg PUBLIC "-//W3C//DTD SVG 20010904//EN"
 "http://www.w3.org/TR/2001/REC-SVG-20010904/DTD/svg10.dtd">
<svg version="1.0" xmlns="http://www.w3.org/2000/svg"
 width="700.000000pt" height="700.000000pt" viewBox="0 0 700.000000 700.000000"
 preserveAspectRatio="xMidYMid meet">
<metadata>
Created by potrace 1.14, written by Peter Selinger 2001-2017
</metadata>
<g transform="translate(0.000000,700.000000) scale(0.100000,-0.100000)"
fill="#000000" stroke="none">
<path d="M3425 6337 c-145 -50 -211 -218 -137 -350 95 -171 338 -168 426 6 64
126 15 272 -111 332 -44 21 -135 27 -178 12z"/>
<path d="M5225 5610 c-119 -26 -197 -122 -198 -241 0 -176 184 -294 346 -220
143 65 185 258 82 378 -57 66 -151 101 -230 83z"/>
<path d="M1625 5586 c-150 -69 -186 -260 -73 -387 90 -101 265 -97 358 8 174
198 -46 491 -285 379z"/>
<path d="M3309 5346 c-2 -2 -26 -7 -54 -10 -27 -4 -57 -9 -65 -11 -8 -2 -31
-7 -50 -10 -158 -27 -410 -134 -568 -241 -286 -195 -512 -476 -633 -784 -45
-113 -96 -305 -106 -400 -4 -36 -7 -137 -7 -225 0 -172 18 -285 71 -443 32
-99 116 -274 183 -382 55 -88 73 -115 245 -360 110 -157 201 -298 215 -334 12
-34 20 -87 26 -194 3 -54 7 -115 9 -137 2 -22 7 -101 11 -175 3 -74 8 -153 9
-175 2 -22 6 -105 10 -185 3 -80 11 -163 17 -185 37 -144 162 -242 316 -247
68 -2 75 -4 87 -28 23 -43 87 -98 150 -126 59 -27 61 -27 295 -29 258 -2 333
7 397 48 41 27 94 80 111 112 6 12 22 20 40 21 67 3 138 16 166 32 59 32 116
84 142 128 40 67 52 134 59 314 9 236 22 466 41 710 7 97 20 134 79 224 43 66
157 227 192 271 4 6 45 64 89 130 170 251 250 401 310 585 134 403 67 906
-173 1303 -91 151 -254 340 -370 428 -32 24 -64 49 -71 56 -32 31 -207 131
-302 174 -109 48 -246 95 -309 105 -20 3 -39 8 -43 10 -4 3 -24 7 -45 10 -21
2 -49 7 -63 11 -28 6 -405 15 -411 9z m894 -3485 c-2 -31 -5 -74 -7 -96 -3
-22 -5 -47 -5 -55 -1 -14 -78 -16 -692 -15 l-692 0 -3 65 c-2 36 -6 86 -7 111
l-4 46 707 0 707 0 -4 -56z m-22 -327 c-1 -28 -4 -60 -6 -70 -2 -10 -4 -31 -4
-45 l-1 -25 -670 0 -670 0 -1 40 c0 23 -3 67 -5 99 l-5 57 683 -2 682 -3 -3
-51z m-27 -257 c8 -3 12 -20 11 -44 -6 -110 -29 -155 -91 -171 -16 -4 -281 -7
-589 -6 -496 1 -564 3 -592 17 -42 22 -58 58 -61 139 l-4 67 34 3 c53 5 1278
0 1292 -5z"/>
<path d="M980 3842 c-210 -28 -297 -268 -151 -413 181 -182 477 -3 404 244
-29 100 -153 183 -253 169z"/>
<path d="M5965 3840 c-234 -35 -288 -351 -78 -456 102 -51 201 -35 284 45 86
84 96 204 25 311 -45 69 -147 112 -231 100z"/>
<path d="M5229 2070 c-20 -4 -56 -18 -81 -33 -108 -63 -148 -190 -96 -309 80
-187 344 -189 441 -3 29 55 29 155 0 211 -52 99 -157 152 -264 134z"/>
<path d="M1670 2063 c-78 -26 -131 -72 -161 -139 -68 -152 41 -330 207 -339
144 -8 259 100 257 241 -1 105 -51 181 -148 225 -38 17 -121 24 -155 12z"/>
</g>
</svg>
