<?xml version="1.0" encoding="UTF-8"?>
<svg width="1200pt" height="1200pt" version="1.1" viewBox="0 0 1200 1200" xmlns="http://www.w3.org/2000/svg">
 <g fill="#00a3d2">
  <path d="m434.4 829.2c1.1992 2.3984 3.6016 7.1992 4.8008 25.199 0 6 1.1992 12 1.1992 18s1.1992 12 1.1992 18c1.1992 14.398 2.3984 40.801 3.6016 64.801 1.1992 19.199 2.3984 38.398 2.3984 48 2.3984 28.801 26.398 51.602 56.398 51.602h12.004c9.6016 19.199 28.801 31.199 50.398 31.199h67.199c21.602 0 40.801-12 50.398-31.199h9.6055c28.801 0 54-22.801 56.398-51.602 1.1992-9.6016 1.1992-28.801 2.3984-48 1.1992-24 2.3984-50.398 3.6016-64.801 0-6 1.1992-12 1.1992-19.199 0-6 1.1992-12 1.1992-18 1.1992-18 3.6016-22.801 4.8008-25.199 12-20.398 26.398-39.602 39.602-57.602 42-60 82.801-116.4 82.801-200.4 0-81.602-34.801-159.6-96-214.8-61.199-54-142.8-80.398-225.6-70.801-142.8 16.801-253.2 142.8-252 286.8 1.1992 84 40.801 139.2 82.801 198 14.398 20.402 27.598 39.602 39.598 60zm278.4 172.8c-1.1992 9.6016-8.3984 16.801-19.199 16.801h-188.4c-9.6016 0-18-7.1992-19.199-16.801 0-4.8008-1.1992-12-1.1992-21.602h229.2c0 8.4023 0 16.801-1.1992 21.602zm2.3984-48v7.1992h-230.4v-7.1992c0-8.3984-1.1992-18-1.1992-26.398h234c-1.2031 9.5977-1.2031 18-2.4023 26.398zm6-82.801c0 6-1.1992 10.801-1.1992 16.801s-1.1992 13.199-1.1992 21.602h-237.6c0-8.3984-1.1992-15.602-1.1992-21.602s-1.1992-10.801-1.1992-16.801z"/>
  <path d="m213.6 583.2c0 23.195-18.805 42-42 42-23.199 0-42-18.805-42-42 0-23.195 18.801-42 42-42 23.195 0 42 18.805 42 42"/>
  <path d="m1070.4 583.2c0 23.195-18.801 42-42 42-23.195 0-42-18.805-42-42 0-23.195 18.805-42 42-42 23.199 0 42 18.805 42 42"/>
  <path d="m642 153.6c0 23.195-18.805 42-42 42s-42-18.805-42-42c0-23.199 18.805-42 42-42s42 18.801 42 42"/>
  <path d="m326.53 857.19c16.402 16.398 16.402 42.992 0 59.395-16.402 16.402-42.996 16.402-59.398 0-16.402-16.402-16.402-42.996 0-59.395 16.402-16.402 42.996-16.402 59.398 0"/>
  <path d="m933.05 249.73c16.402 16.402 16.402 42.996 0 59.398-16.402 16.402-42.996 16.402-59.398 0-16.402-16.402-16.402-42.996 0-59.398 16.402-16.398 42.996-16.398 59.398 0"/>
  <path d="m933.52 856.74c16.402 16.402 16.402 42.996 0 59.398-16.402 16.402-42.992 16.402-59.395 0-16.402-16.402-16.402-42.996 0-59.398 16.402-16.402 42.992-16.402 59.395 0"/>
  <path d="m326.05 250.2c16.402 16.402 16.402 42.992 0 59.395-16.402 16.402-42.992 16.402-59.395 0s-16.402-42.992 0-59.395 42.992-16.402 59.395 0"/>
 </g>
</svg>
