<?xml version="1.0" encoding="UTF-8" standalone="no"?>
<svg
   xmlns:dc="http://purl.org/dc/elements/1.1/"
   xmlns:cc="http://creativecommons.org/ns#"
   xmlns:rdf="http://www.w3.org/1999/02/22-rdf-syntax-ns#"
   xmlns:svg="http://www.w3.org/2000/svg"
   xmlns="http://www.w3.org/2000/svg"
   xmlns:sodipodi="http://sodipodi.sourceforge.net/DTD/sodipodi-0.dtd"
   xmlns:inkscape="http://www.inkscape.org/namespaces/inkscape"
   inkscape:version="1.0.1 (3bc2e813f5, 2020-09-07, custom)"
   sodipodi:docname="mindwendel.svg"
   id="svg12"
   xml:space="preserve"
   viewBox="0 0 421.09604 81.199996"
   y="0px"
   x="0px"
   version="1.1"
   fill="#00a3d3"
   width="421.09604"
   height="81.199997"><sodipodi:namedview
     inkscape:document-rotation="0"
     pagecolor="#ffffff"
     bordercolor="#666666"
     borderopacity="1"
     objecttolerance="10"
     gridtolerance="10"
     guidetolerance="10"
     inkscape:pageopacity="0"
     inkscape:pageshadow="2"
     inkscape:window-width="1920"
     inkscape:window-height="1019"
     id="namedview10"
     showgrid="false"
     inkscape:zoom="2.3798995"
     inkscape:cx="192.15084"
     inkscape:cy="62.118445"
     inkscape:window-x="0"
     inkscape:window-y="32"
     inkscape:window-maximized="1"
     inkscape:current-layer="text1059" /><metadata
     id="metadata18"><rdf:RDF><cc:Work
         rdf:about=""><dc:format>image/svg+xml</dc:format><dc:type
           rdf:resource="http://purl.org/dc/dcmitype/StillImage" /><dc:title /></cc:Work></rdf:RDF></metadata><defs
     id="defs16"><rect
       x="92.506851"
       y="15.599149"
       width="280.36682"
       height="69.667419"
       id="rect1035" /><rect
       x="103.82408"
       y="22.441263"
       width="233.05298"
       height="68.907661"
       id="rect1480" /><rect
       x="105.61219"
       y="9.0322132"
       width="208.49744"
       height="85.73774"
       id="rect837" /></defs><text
     xml:space="preserve"
     id="text835"
     style="font-style:normal;font-weight:normal;font-size:40px;line-height:1.25;font-family:sans-serif;letter-spacing:0px;word-spacing:0px;white-space:pre;shape-inside:url(#rect837);fill:#000000;fill-opacity:1;stroke:none;"
     transform="translate(-22.279959,-2.4602369)" /><g
     id="g4"
     transform="translate(-11.970513,-13.548704)"><rect
       x="86.800003"
       y="49.599998"
       width="0.1"
       height="0.30000001"
       id="rect2" /></g><text
     xml:space="preserve"
     id="text1478"
     style="font-style:normal;font-weight:normal;font-size:40px;line-height:1.25;font-family:sans-serif;letter-spacing:0px;word-spacing:0px;white-space:pre;shape-inside:url(#rect1480);fill:#000000;fill-opacity:1;stroke:none;"
     transform="translate(-6.3635171,-6.4924988)" /><g
     style="fill:#00a3d3"
     id="g1031"
     transform="translate(-10.8,-9.3000002)"><g
       id="g1012"><path
         d="m 36.2,69.1 c 0.1,0.2 0.3,0.6 0.4,2.1 v 0 c 0,0.5 0.1,1 0.1,1.5 0,0.5 0.1,1 0.1,1.5 0.1,1.2 0.2,3.4 0.3,5.4 0.1,1.6 0.2,3.2 0.2,4 0.2,2.4 2.2,4.3 4.7,4.3 h 0.6 0.4 c 0.8,1.6 2.4,2.6 4.2,2.6 h 5.6 c 1.8,0 3.4,-1 4.2,-2.6 v 0 h 0.8 c 2.4,0 4.5,-1.9 4.7,-4.3 0.1,-0.8 0.1,-2.4 0.2,-4 0.1,-2 0.2,-4.2 0.3,-5.4 0,-0.5 0.1,-1 0.1,-1.6 0,-0.5 0.1,-1 0.1,-1.5 v 0 c 0.1,-1.5 0.3,-1.9 0.4,-2.1 1,-1.7 2.2,-3.3 3.3,-4.8 3.5,-5 6.9,-9.7 6.9,-16.7 0,-6.8 -2.9,-13.3 -8,-17.9 C 60.7,25.1 53.9,22.9 47,23.7 35.1,25.1 25.9,35.6 26,47.6 c 0.1,7 3.4,11.6 6.9,16.5 1.2,1.7 2.3,3.3 3.3,5 z m 23.2,14.4 c -0.1,0.8 -0.7,1.4 -1.6,1.4 H 57 56.4 43.5 42.7 42.1 c -0.8,0 -1.5,-0.6 -1.6,-1.4 0,-0.4 -0.1,-1 -0.1,-1.8 h 19.1 c 0,0.7 0,1.4 -0.1,1.8 z m 0.2,-4 c 0,0.2 0,0.4 0,0.6 H 40.4 c 0,-0.2 0,-0.4 0,-0.6 0,-0.7 -0.1,-1.5 -0.1,-2.2 h 19.5 c -0.1,0.8 -0.1,1.5 -0.2,2.2 z m 0.5,-6.9 c 0,0.5 -0.1,0.9 -0.1,1.4 0,0.5 -0.1,1.1 -0.1,1.8 H 40.1 C 40.1,75.1 40,74.5 40,74 40,73.5 39.9,73.1 39.9,72.6 Z"
         id="path996" /><circle
         cx="14.3"
         cy="48.599998"
         r="3.5"
         id="circle998" /><circle
         cx="85.699997"
         cy="48.599998"
         r="3.5"
         id="circle1000" /><circle
         cx="50"
         cy="12.8"
         r="3.5"
         id="circle1002" /><circle
         transform="matrix(0.7071,-0.7071,0.7071,0.7071,-44.9844,39.118)"
         cx="24.700001"
         cy="73.900002"
         id="ellipse1004"
         r="3.5" /><circle
         transform="matrix(0.7071,-0.7071,0.7071,0.7071,5.5596,60.0554)"
         cx="75.300003"
         cy="23.299999"
         id="ellipse1006"
         r="3.5" /><circle
         transform="matrix(0.7071,-0.7071,0.7071,0.7071,-30.1808,74.8597)"
         cx="75.300003"
         cy="73.900002"
         id="ellipse1008"
         r="3.5" /><circle
         transform="matrix(0.7071,-0.7071,0.7071,0.7071,-9.2447,24.315)"
         cx="24.700001"
         cy="23.299999"
         id="ellipse1010"
         r="3.5" /></g></g><text
     xml:space="preserve"
     id="text1033"
     style="font-style:normal;font-weight:normal;font-size:40px;line-height:1.25;font-family:sans-serif;letter-spacing:0px;word-spacing:0px;white-space:pre;shape-inside:url(#rect1035);fill:#000000;fill-opacity:1;stroke:none;"
     transform="translate(-2.9705128,-5.0487045)"><tspan
       style="visibility:hidden"
       x="92.507812"
       y="172.06562"><tspan
         dx="0 81.599854 26.495911 55.583862 56.639832 68.831909 52.223877 55.583862 56.639832 52.223877"
         style="font-style:normal;font-variant:normal;font-weight:normal;font-stretch:normal;font-size:96px;font-family:'Fira Sans';-inkscape-font-specification:'Fira Sans'">mindwendel</tspan></tspan></text><g
     aria-label="mindwendel"
     id="text1059"
     style="font-style:normal;font-weight:normal;font-size:61.5179px;line-height:1.25;font-family:sans-serif;letter-spacing:0px;word-spacing:0px;fill:#000000;fill-opacity:1;stroke:none;stroke-width:1.15346"><path
       d="m 118.61328,42.079791 q 3.99867,0 6.39786,2.706787 2.3992,2.64527 2.3992,7.197594 V 75.237938 H 121.7507 V 52.783905 q 0,-6.274826 -4.55233,-6.274826 -2.3992,0 -4.06018,1.414912 -1.66098,1.353394 -3.56804,4.306253 V 75.237938 H 103.9105 V 52.783905 q 0,-6.274826 -4.55232,-6.274826 -2.460716,0 -4.121699,1.414912 -1.660983,1.414912 -3.50652,4.306253 V 75.237938 H 86.070314 V 42.818005 h 4.859914 l 0.492143,4.736879 q 3.629556,-5.475093 9.350719,-5.475093 3.01438,0 5.10599,1.537947 2.15312,1.537948 3.07589,4.306253 1.90706,-2.829823 4.18322,-4.306253 2.33768,-1.537947 5.47509,-1.537947 z"
       style="font-style:normal;font-variant:normal;font-weight:normal;font-stretch:normal;font-size:61.5179px;font-family:'Fira Sans';-inkscape-font-specification:'Fira Sans';stroke-width:1.15346"
       id="path889" /><path
       d="m 141.12874,27.253977 q 1.78402,0 2.89134,1.107322 1.10732,1.107322 1.10732,2.768306 0,1.660983 -1.10732,2.768305 -1.10732,1.045804 -2.89134,1.045804 -1.7225,0 -2.82982,-1.045804 -1.10733,-1.107322 -1.10733,-2.768305 0,-1.660984 1.10733,-2.768306 1.10732,-1.107322 2.82982,-1.107322 z m 2.89134,47.983961 h -5.65965 V 42.818005 h 5.65965 z"
       style="font-style:normal;font-variant:normal;font-weight:normal;font-stretch:normal;font-size:61.5179px;font-family:'Fira Sans';-inkscape-font-specification:'Fira Sans';stroke-width:1.15346"
       id="path891" /><path
       d="m 170.59575,42.079791 q 4.42929,0 6.89,2.645269 2.52224,2.64527 2.52224,7.259112 v 23.253766 h -5.65965 V 52.783905 q 0,-3.445002 -1.29187,-4.859914 -1.29188,-1.414912 -3.81411,-1.414912 -2.58376,0 -4.55233,1.47643 -1.96857,1.476429 -3.69107,4.244735 v 23.007694 h -5.65965 V 42.818005 h 4.85992 l 0.49214,4.798396 q 1.7225,-2.583751 4.24473,-4.060181 2.58376,-1.476429 5.65965,-1.476429 z"
       style="font-style:normal;font-variant:normal;font-weight:normal;font-stretch:normal;font-size:61.5179px;font-family:'Fira Sans';-inkscape-font-specification:'Fira Sans';stroke-width:1.15346"
       id="path893" /><path
       d="m 215.93435,29.776211 v 45.461727 h -4.98295 l -0.55366,-4.490807 q -1.59946,2.460716 -3.99866,3.875628 -2.3992,1.353394 -5.35206,1.353394 -5.78268,0 -9.04313,-4.552325 -3.19893,-4.552324 -3.19893,-12.242062 0,-4.982949 1.53795,-8.858577 1.53794,-3.875628 4.42929,-6.028754 2.89134,-2.214644 6.76696,-2.214644 4.98295,0 8.73555,3.998663 v -16.97894 z m -13.65697,41.709135 q 2.58375,0 4.42929,-1.16884 1.84553,-1.230358 3.56804,-3.629556 V 50.815332 q -1.59947,-2.091608 -3.44501,-3.137413 -1.78402,-1.107322 -4.06018,-1.107322 -3.75259,0 -5.8442,3.137413 -2.03009,3.137413 -2.03009,9.350721 0,6.274825 1.90706,9.35072 1.90705,3.075895 5.47509,3.075895 z"
       style="font-style:normal;font-variant:normal;font-weight:normal;font-stretch:normal;font-size:61.5179px;font-family:'Fira Sans';-inkscape-font-specification:'Fira Sans';stroke-width:1.15346"
       id="path895" /><path
       d="m 257.08972,75.237938 h -7.68973 l -5.65965,-27.313947 -5.8442,27.313947 h -7.50519 l -7.5667,-32.419933 h 5.65965 l 5.8442,28.482787 6.39786,-28.482787 h 6.33634 l 6.09028,28.482787 5.90572,-28.482787 h 5.41357 z"
       style="font-style:normal;font-variant:normal;font-weight:normal;font-stretch:normal;font-size:61.5179px;font-family:'Fira Sans';-inkscape-font-specification:'Fira Sans';stroke-width:1.15346"
       id="path897" /><path
       d="m 296.0305,58.074444 q 0,1.414912 -0.12304,2.891341 h -20.67001 q 0.3691,5.352058 2.70678,7.874291 2.33768,2.522234 6.02876,2.522234 2.33768,0 4.30625,-0.676697 1.96857,-0.676696 4.1217,-2.153126 l 2.46072,3.383484 q -5.16751,4.060182 -11.3193,4.060182 -6.76697,0 -10.58108,-4.429289 -3.75259,-4.429289 -3.75259,-12.180544 0,-5.044468 1.59947,-8.920095 1.66098,-3.937146 4.67536,-6.15179 3.07589,-2.214644 7.19759,-2.214644 6.45938,0 9.90438,4.244735 3.44501,4.244735 3.44501,11.749918 z m -5.59813,-1.660983 q 0,-4.798396 -1.90706,-7.32063 -1.90705,-2.522234 -5.72116,-2.522234 -6.95153,0 -7.5667,10.211971 h 15.19492 z"
       style="font-style:normal;font-variant:normal;font-weight:normal;font-stretch:normal;font-size:61.5179px;font-family:'Fira Sans';-inkscape-font-specification:'Fira Sans';stroke-width:1.15346"
       id="path899" /><path
       d="m 320.08391,42.079791 q 4.42929,0 6.89,2.645269 2.52224,2.64527 2.52224,7.259112 V 75.237938 H 323.8365 V 52.783905 q 0,-3.445002 -1.29187,-4.859914 -1.29188,-1.414912 -3.81411,-1.414912 -2.58376,0 -4.55233,1.47643 -1.96857,1.476429 -3.69107,4.244735 v 23.007694 h -5.65965 V 42.818005 h 4.85991 l 0.49215,4.798396 q 1.7225,-2.583751 4.24473,-4.060181 2.58375,-1.476429 5.65965,-1.476429 z"
       style="font-style:normal;font-variant:normal;font-weight:normal;font-stretch:normal;font-size:61.5179px;font-family:'Fira Sans';-inkscape-font-specification:'Fira Sans';stroke-width:1.15346"
       id="path901" /><path
       d="m 365.42251,29.776211 v 45.461727 h -4.98295 l -0.55366,-4.490807 q -1.59946,2.460716 -3.99866,3.875628 -2.3992,1.353394 -5.35206,1.353394 -5.78268,0 -9.04313,-4.552325 -3.19893,-4.552324 -3.19893,-12.242062 0,-4.982949 1.53795,-8.858577 1.53794,-3.875628 4.42928,-6.028754 2.89135,-2.214644 6.76697,-2.214644 4.98295,0 8.73555,3.998663 v -16.97894 z m -13.65697,41.709135 q 2.58375,0 4.42929,-1.16884 1.84553,-1.230358 3.56804,-3.629556 V 50.815332 q -1.59947,-2.091608 -3.44501,-3.137413 -1.78402,-1.107322 -4.06018,-1.107322 -3.75259,0 -5.8442,3.137413 -2.03009,3.137413 -2.03009,9.350721 0,6.274825 1.90706,9.35072 1.90705,3.075895 5.47509,3.075895 z"
       style="font-style:normal;font-variant:normal;font-weight:normal;font-stretch:normal;font-size:61.5179px;font-family:'Fira Sans';-inkscape-font-specification:'Fira Sans';stroke-width:1.15346"
       id="path903" /><path
       d="m 401.41038,58.074444 q 0,1.414912 -0.12304,2.891341 h -20.67001 q 0.36911,5.352058 2.70679,7.874291 2.33768,2.522234 6.02875,2.522234 2.33768,0 4.30625,-0.676697 1.96858,-0.676696 4.1217,-2.153126 l 2.46072,3.383484 q -5.16751,4.060182 -11.3193,4.060182 -6.76696,0 -10.58107,-4.429289 -3.7526,-4.429289 -3.7526,-12.180544 0,-5.044468 1.59947,-8.920095 1.66098,-3.937146 4.67536,-6.15179 3.07589,-2.214644 7.19759,-2.214644 6.45938,0 9.90439,4.244735 3.445,4.244735 3.445,11.749918 z m -5.59813,-1.660983 q 0,-4.798396 -1.90706,-7.32063 -1.90705,-2.522234 -5.72116,-2.522234 -6.95152,0 -7.5667,10.211971 h 15.19492 z"
       style="font-style:normal;font-variant:normal;font-weight:normal;font-stretch:normal;font-size:61.5179px;font-family:'Fira Sans';-inkscape-font-specification:'Fira Sans';stroke-width:1.15346"
       id="path905" /><path
       d="m 416.60523,75.976153 q -3.13741,0 -4.98295,-1.845537 -1.78402,-1.907055 -1.78402,-5.29054 V 29.776211 l 5.65965,-0.676697 v 39.617527 q 0,1.291876 0.43062,1.968572 0.49215,0.615179 1.59947,0.615179 1.16884,0 2.09161,-0.369107 l 1.47643,3.937146 q -2.03009,1.107322 -4.49081,1.107322 z"
       style="font-style:normal;font-variant:normal;font-weight:normal;font-stretch:normal;font-size:61.5179px;font-family:'Fira Sans';-inkscape-font-specification:'Fira Sans';stroke-width:1.15346"
       id="path907" /></g></svg>
