<svg height='100px' width='100px'  fill="#00a3d3" xmlns="http://www.w3.org/2000/svg" xmlns:xlink="http://www.w3.org/1999/xlink" version="1.1" x="0px" y="0px" viewBox="0 0 100 100" style="enable-background:new 0 0 100 100;" xml:space="preserve"><g><path d="M36.2,69.1c0.1,0.2,0.3,0.6,0.4,2.1l0,0c0,0.5,0.1,1,0.1,1.5c0,0.5,0.1,1,0.1,1.5c0.1,1.2,0.2,3.4,0.3,5.4   c0.1,1.6,0.2,3.2,0.2,4c0.2,2.4,2.2,4.3,4.7,4.3h0.6H43c0.8,1.6,2.4,2.6,4.2,2.6h5.6c1.8,0,3.4-1,4.2-2.6H57h0.8   c2.4,0,4.5-1.9,4.7-4.3c0.1-0.8,0.1-2.4,0.2-4c0.1-2,0.2-4.2,0.3-5.4c0-0.5,0.1-1,0.1-1.6c0-0.5,0.1-1,0.1-1.5l0,0   c0.1-1.5,0.3-1.9,0.4-2.1c1-1.7,2.2-3.3,3.3-4.8c3.5-5,6.9-9.7,6.9-16.7c0-6.8-2.9-13.3-8-17.9c-5.1-4.5-11.9-6.7-18.8-5.9   c-11.9,1.4-21.1,11.9-21,23.9c0.1,7,3.4,11.6,6.9,16.5C34.1,65.8,35.2,67.4,36.2,69.1z M59.4,83.5c-0.1,0.8-0.7,1.4-1.6,1.4H57   h-0.6H43.5h-0.8h-0.6c-0.8,0-1.5-0.6-1.6-1.4c0-0.4-0.1-1-0.1-1.8h19.1C59.5,82.4,59.5,83.1,59.4,83.5z M59.6,79.5   c0,0.2,0,0.4,0,0.6H40.4c0-0.2,0-0.4,0-0.6c0-0.7-0.1-1.5-0.1-2.2h19.5C59.7,78.1,59.7,78.8,59.6,79.5z M60.1,72.6   c0,0.5-0.1,0.9-0.1,1.4c0,0.5-0.1,1.1-0.1,1.8H40.1c0-0.7-0.1-1.3-0.1-1.8c0-0.5-0.1-0.9-0.1-1.4H60.1z"></path><circle cx="14.3" cy="48.6" r="3.5"></circle><circle cx="85.7" cy="48.6" r="3.5"></circle><circle cx="50" cy="12.8" r="3.5"></circle><ellipse transform="matrix(0.7071 -0.7071 0.7071 0.7071 -44.9844 39.118)" cx="24.7" cy="73.9" rx="3.5" ry="3.5"></ellipse><ellipse transform="matrix(0.7071 -0.7071 0.7071 0.7071 5.5596 60.0554)" cx="75.3" cy="23.3" rx="3.5" ry="3.5"></ellipse><ellipse transform="matrix(0.7071 -0.7071 0.7071 0.7071 -30.1808 74.8597)" cx="75.3" cy="73.9" rx="3.5" ry="3.5"></ellipse><ellipse transform="matrix(0.7071 -0.7071 0.7071 0.7071 -9.2447 24.315)" cx="24.7" cy="23.3" rx="3.5" ry="3.5"></ellipse></g></svg>