<?xml version="1.0" encoding="UTF-8" standalone="no"?>
<!-- Created with Inkscape (http://www.inkscape.org/) -->

<svg
   xmlns:dc="http://purl.org/dc/elements/1.1/"
   xmlns:cc="http://creativecommons.org/ns#"
   xmlns:rdf="http://www.w3.org/1999/02/22-rdf-syntax-ns#"
   xmlns:svg="http://www.w3.org/2000/svg"
   xmlns="http://www.w3.org/2000/svg"
   xmlns:sodipodi="http://sodipodi.sourceforge.net/DTD/sodipodi-0.dtd"
   xmlns:inkscape="http://www.inkscape.org/namespaces/inkscape"
   width="82.587883mm"
   height="43.140797mm"
   viewBox="0 0 82.587884 43.140797"
   version="1.1"
   id="svg53"
   inkscape:version="0.92.3 (2405546, 2018-03-11)"
   sodipodi:docname="kits_logo.svg">
  <defs
     id="defs47" />
  <sodipodi:namedview
     id="base"
     pagecolor="#ffffff"
     bordercolor="#666666"
     borderopacity="1.0"
     inkscape:pageopacity="0.0"
     inkscape:pageshadow="2"
     inkscape:zoom="9.7896959"
     inkscape:cx="291.13637"
     inkscape:cy="115.46779"
     inkscape:document-units="mm"
     inkscape:current-layer="g35"
     showgrid="false"
     inkscape:window-width="1920"
     inkscape:window-height="1027"
     inkscape:window-x="-8"
     inkscape:window-y="-8"
     inkscape:window-maximized="1"
     showguides="true"
     inkscape:guide-bbox="true">
    <sodipodi:guide
       position="67.207347,4.2239254"
       orientation="1,0"
       id="guide1435"
       inkscape:locked="false" />
  </sodipodi:namedview>
  <metadata
     id="metadata50">
    <rdf:RDF>
      <cc:Work
         rdf:about="">
        <dc:format>image/svg+xml</dc:format>
        <dc:type
           rdf:resource="http://purl.org/dc/dcmitype/StillImage" />
        <dc:title />
      </cc:Work>
    </rdf:RDF>
  </metadata>
  <g
     inkscape:groupmode="layer"
     id="layer2"
     inkscape:label="Ebene 2"
     style="display:inline"
     transform="translate(17.987022,2.4044625)">
    <g
       transform="matrix(4.0529229,0,0,4.0529229,-223.55328,-470.63108)"
       style="display:inline"
       id="g35">
      <g
         aria-label="kits"
         transform="matrix(0.26458333,0,0,0.26458333,108.88172,85.529972)"
         style="font-style:normal;font-weight:normal;font-size:40px;line-height:1.25;font-family:sans-serif;letter-spacing:0px;word-spacing:0px;fill:#000000;fill-opacity:1;stroke:none"
         id="flowRoot15">
        <path
           d="m -216.14195,153.12956 h -3.68 v -29.56 l 3.68,-0.44 z m 4.36,-11.76 8.64,11.76 h -4.4 l -8.36,-11.52 7.76,-9.56 h 4.12 z"
           style="font-style:normal;font-variant:normal;font-weight:normal;font-stretch:normal;font-family:'Fira Sans';-inkscape-font-specification:'Fira Sans'"
           id="path841" />
        <path
           d="m -197.63133,121.92956 q 1.16,0 1.88,0.72 0.72,0.72 0.72,1.8 0,1.08 -0.72,1.8 -0.72,0.68 -1.88,0.68 -1.12,0 -1.84,-0.68 -0.72,-0.72 -0.72,-1.8 0,-1.08 0.72,-1.8 0.72,-0.72 1.84,-0.72 z m 1.88,31.2 h -3.68 v -21.08 h 3.68 z"
           style="font-style:normal;font-variant:normal;font-weight:normal;font-stretch:normal;font-family:'Fira Sans';-inkscape-font-specification:'Fira Sans'"
           id="path843" />
        <path
           d="m -177.6557,152.16956 q -2.08,1.44 -4.72,1.44 -2.68,0 -4.2,-1.52 -1.48,-1.56 -1.48,-4.48 v -12.72 h -3.68 v -2.84 h 3.68 v -4.76 l 3.68,-0.44 v 5.2 h 5 l -0.4,2.84 h -4.6 v 12.56 q 0,1.64 0.56,2.4 0.6,0.72 1.96,0.72 1.24,0 2.8,-0.84 z"
           style="font-style:normal;font-variant:normal;font-weight:normal;font-stretch:normal;font-family:'Fira Sans';-inkscape-font-specification:'Fira Sans'"
           id="path845" />
        <path
           d="m -168.12258,131.56956 q 2.16,0 3.88,0.6 1.72,0.6 3.28,1.8 l -1.56,2.32 q -1.44,-0.92 -2.76,-1.36 -1.28,-0.44 -2.72,-0.44 -1.8,0 -2.84,0.76 -1.04,0.72 -1.04,2 0,1.28 0.96,2 1,0.72 3.56,1.4 3.52,0.88 5.24,2.4 1.76,1.52 1.76,4.16 0,3.12 -2.44,4.76 -2.4,1.64 -5.88,1.64 -4.8,0 -7.96,-2.76 l 1.96,-2.24 q 2.68,2.04 5.92,2.04 2.08,0 3.28,-0.84 1.24,-0.88 1.24,-2.36 0,-1.08 -0.44,-1.72 -0.44,-0.68 -1.52,-1.16 -1.08,-0.52 -3.16,-1.08 -3.36,-0.88 -4.88,-2.36 -1.48,-1.48 -1.48,-3.76 0,-1.64 0.96,-2.96 1,-1.36 2.72,-2.08 1.76,-0.76 3.92,-0.76 z"
           style="font-style:normal;font-variant:normal;font-weight:normal;font-stretch:normal;font-family:'Fira Sans';-inkscape-font-specification:'Fira Sans'"
           id="path847" />
      </g>
      <polygon
         transform="matrix(0,0.04208852,-0.04208852,0,71.301344,115.32608)"
         points="5,93.554 26.337,72.216 48.554,50 5,6.446 "
         id="polygon2"
         style="fill:#00a3d3;fill-opacity:1" />
      <polygon
         transform="matrix(0,0.04208852,-0.04208852,0,71.301344,115.32608)"
         points="6.446,5 50,48.554 72.288,26.266 93.554,5 "
         id="polygon4"
         style="fill:#00a3d3;fill-opacity:1" />
      <rect
         x="34.149303"
         y="-133.29218"
         transform="rotate(135)"
         width="1.2836032"
         height="1.2836032"
         id="rect6"
         style="fill:#00a3d3;fill-opacity:1;stroke-width:0.04208812" />
      <polygon
         transform="matrix(0,0.04208852,-0.04208852,0,71.301344,115.32608)"
         points="95,6.446 74.458,26.989 95,47.531 "
         id="polygon8"
         style="fill:#00a3d3;fill-opacity:1" />
      <polygon
         transform="matrix(0,0.04208852,-0.04208852,0,71.301344,115.32608)"
         points="95,52.469 73.734,73.734 52.469,95 95,95 "
         id="polygon10"
         style="fill:#00a3d3;fill-opacity:1" />
      <polygon
         transform="matrix(0,0.04208852,-0.04208852,0,71.301344,115.32608)"
         points="49.577,95 70.614,73.962 27.484,73.962 6.446,95 "
         id="polygon12"
         style="fill:#00a3d3;fill-opacity:1" />
      <polygon
         transform="matrix(0.02976108,0.02976108,-0.02976108,0.02976108,65.890278,116.39643)"
         points="95,47.531 95,6.446 74.458,26.989 "
         id="polygon8-6"
         style="fill:#00a3d3;fill-opacity:1" />
    </g>
  </g>
</svg>
