<?xml version="1.0" encoding="utf-8"?>
<!-- Generator: Adobe Illustrator 16.0.3, SVG Export Plug-In . SVG Version: 6.00 Build 0)  -->
<!DOCTYPE svg PUBLIC "-//W3C//DTD SVG 1.1//EN" "http://www.w3.org/Graphics/SVG/1.1/DTD/svg11.dtd">
<svg version="1.1" xmlns="http://www.w3.org/2000/svg" xmlns:xlink="http://www.w3.org/1999/xlink" x="0px" y="0px" width="330px"
	 height="200px" viewBox="0 0 330 200" enable-background="new 0 0 330 200" xml:space="preserve">
<g id="Ebene_1" display="none">
	<g display="inline">
		<g>
			<path fill="#777776" d="M147.4-1904.9v-68.5h14.3l17.7,29.4c4.5,7.6,8.5,15.5,11.7,23h0.2c-0.9-9.1-1.1-18-1.1-28.5v-23.9h11.6
				v68.5h-13l-17.9-30.2c-4.4-7.5-8.8-15.9-12.2-23.6l-0.4,0.1c0.5,8.8,0.7,17.9,0.7,29.2v24.5H147.4z"/>
			<path fill="#777776" d="M216.2-1973.3h12.5v58h28.1v10.5h-40.6V-1973.3z"/>
		</g>
		<path fill="#A51F2C" d="M323.1-1939.8c0-19.6-11.8-34.8-31.7-34.8c-19.3,0-32.6,14.8-32.6,36c0,20,12.2,34.9,31.6,34.9
			c0,0,0.1,0,0.1,0l0,0h32.6l-9.5-9.2C319.6-1919.1,323.1-1928.2,323.1-1939.8z M272-1938.9c0-14.1,6.6-25.6,19-25.6
			c12.5,0,18.9,12.2,18.9,25.1c0,14.3-6.8,25.6-18.9,25.6C279-1913.8,272-1924.9,272-1938.9z"/>
		<g>
			<path fill="#777776" d="M147.6-1894.9h2.5v10.3h12.5v-10.3h2.5v24.5h-2.5v-11.8h-12.5v11.8h-2.5V-1894.9z"/>
			<path fill="#777776" d="M171.4-1896c0.5,0,1,0.2,1.4,0.6s0.6,0.8,0.6,1.4c0,0.5-0.2,1-0.6,1.4s-0.8,0.6-1.4,0.6
				c-0.5,0-1-0.2-1.3-0.6s-0.6-0.8-0.6-1.4c0-0.5,0.2-1,0.6-1.4S170.9-1896,171.4-1896z M170.2-1888.5h2.3v18.1h-2.3V-1888.5z"/>
			<path fill="#777776" d="M177.1-1895.5h2.3v25.1h-2.3V-1895.5z"/>
			<path fill="#777776" d="M202.4-1895.5v25.1h-2.3v-3.1c-1,1.2-2.1,2.1-3.3,2.7c-1.2,0.6-2.5,0.9-4,0.9c-2.6,0-4.8-0.9-6.6-2.8
				c-1.8-1.9-2.7-4.1-2.7-6.8c0-2.6,0.9-4.8,2.8-6.7c1.8-1.9,4-2.8,6.6-2.8c1.5,0,2.8,0.3,4,1c1.2,0.6,2.3,1.6,3.2,2.9v-10.3H202.4z
				 M193-1886.7c-1.3,0-2.5,0.3-3.6,1c-1.1,0.6-2,1.5-2.6,2.7s-1,2.4-1,3.7c0,1.3,0.3,2.5,1,3.7c0.7,1.2,1.5,2.1,2.6,2.7
				c1.1,0.7,2.3,1,3.6,1c1.3,0,2.5-0.3,3.6-1c1.1-0.6,2-1.5,2.6-2.6s0.9-2.3,0.9-3.7c0-2.1-0.7-3.9-2.1-5.3
				C196.8-1886,195.1-1886.7,193-1886.7z"/>
			<path fill="#777776" d="M222.9-1876.4l2,1c-0.6,1.3-1.4,2.3-2.2,3.1c-0.8,0.8-1.8,1.4-2.9,1.8c-1.1,0.4-2.3,0.6-3.6,0.6
				c-3,0-5.3-1-6.9-2.9c-1.7-1.9-2.5-4.1-2.5-6.6c0-2.3,0.7-4.4,2.1-6.2c1.8-2.3,4.2-3.4,7.2-3.4c3.1,0,5.6,1.2,7.4,3.5
				c1.3,1.7,2,3.7,2,6.2h-16.3c0,2.1,0.7,3.8,2,5.2c1.3,1.3,2.9,2,4.8,2c0.9,0,1.8-0.2,2.7-0.5s1.6-0.7,2.2-1.3
				C221.5-1874.4,222.2-1875.2,222.9-1876.4z M222.9-1881.3c-0.3-1.2-0.8-2.2-1.4-3c-0.6-0.7-1.4-1.3-2.4-1.8c-1-0.5-2-0.7-3.1-0.7
				c-1.8,0-3.3,0.6-4.6,1.7c-0.9,0.8-1.6,2.1-2.1,3.8H222.9z"/>
			<path fill="#777776" d="M239-1886.5l-1.5,1.5c-1.2-1.2-2.5-1.8-3.7-1.8c-0.8,0-1.4,0.3-1.9,0.8s-0.8,1.1-0.8,1.8
				c0,0.6,0.2,1.2,0.7,1.7c0.4,0.5,1.4,1.2,2.8,1.9c1.7,0.9,2.9,1.8,3.5,2.6c0.6,0.8,0.9,1.8,0.9,2.9c0,1.5-0.5,2.8-1.6,3.8
				c-1,1-2.4,1.6-3.9,1.6c-1,0-2-0.2-3-0.7c-1-0.5-1.7-1.1-2.4-1.9l1.5-1.7c1.2,1.3,2.5,2,3.8,2c0.9,0,1.7-0.3,2.4-0.9
				c0.7-0.6,1-1.3,1-2.1c0-0.7-0.2-1.3-0.7-1.8c-0.4-0.5-1.4-1.2-2.9-1.9c-1.6-0.8-2.8-1.7-3.3-2.5c-0.6-0.8-0.9-1.8-0.9-2.8
				c0-1.4,0.5-2.5,1.4-3.4c0.9-0.9,2.1-1.4,3.6-1.4C235.6-1889,237.3-1888.2,239-1886.5z"/>
			<path fill="#777776" d="M243.1-1895.5h2.3v10.3c0.9-1.2,2-2.2,3.1-2.8c1.1-0.6,2.4-0.9,3.7-0.9c1.4,0,2.6,0.3,3.6,1
				c1.1,0.7,1.8,1.6,2.3,2.8c0.5,1.2,0.8,3,0.8,5.5v9.3h-2.3v-8.7c0-2.1-0.1-3.5-0.3-4.2c-0.3-1.2-0.8-2.1-1.6-2.7
				c-0.8-0.6-1.8-0.9-3-0.9c-1.4,0-2.7,0.5-3.8,1.4c-1.1,0.9-1.9,2.1-2.2,3.5c-0.2,0.9-0.3,2.5-0.3,4.9v6.7h-2.3V-1895.5z"/>
			<path fill="#777776" d="M279.2-1876.4l2,1c-0.6,1.3-1.4,2.3-2.2,3.1c-0.8,0.8-1.8,1.4-2.9,1.8c-1.1,0.4-2.3,0.6-3.6,0.6
				c-3,0-5.3-1-6.9-2.9c-1.7-1.9-2.5-4.1-2.5-6.6c0-2.3,0.7-4.4,2.1-6.2c1.8-2.3,4.2-3.4,7.2-3.4c3.1,0,5.6,1.2,7.4,3.5
				c1.3,1.7,2,3.7,2,6.2h-16.3c0,2.1,0.7,3.8,2,5.2c1.3,1.3,2.9,2,4.8,2c0.9,0,1.8-0.2,2.7-0.5s1.6-0.7,2.2-1.3
				C277.8-1874.4,278.5-1875.2,279.2-1876.4z M279.2-1881.3c-0.3-1.2-0.8-2.2-1.4-3c-0.6-0.7-1.4-1.3-2.4-1.8c-1-0.5-2-0.7-3.1-0.7
				c-1.8,0-3.3,0.6-4.6,1.7c-0.9,0.8-1.6,2.1-2.1,3.8H279.2z"/>
			<path fill="#777776" d="M286.9-1896c0.5,0,1,0.2,1.4,0.6s0.6,0.8,0.6,1.4c0,0.5-0.2,1-0.6,1.4s-0.8,0.6-1.4,0.6
				c-0.5,0-1-0.2-1.3-0.6s-0.6-0.8-0.6-1.4c0-0.5,0.2-1,0.6-1.4S286.4-1896,286.9-1896z M285.8-1888.5h2.3v18.1h-2.3V-1888.5z"/>
			<path fill="#777776" d="M292.9-1888.5h2.3v3.1c0.8-1.2,1.6-2,2.5-2.5c1.2-0.7,2.4-1.1,3.7-1.1c0.9,0,1.7,0.2,2.5,0.5
				c0.8,0.3,1.4,0.8,1.9,1.4s0.9,1.4,1.3,2.5c0.8-1.4,1.7-2.5,2.9-3.2c1.2-0.7,2.4-1.1,3.8-1.1c1.3,0,2.4,0.3,3.3,1
				c1,0.6,1.7,1.5,2.1,2.7c0.5,1.1,0.7,2.8,0.7,5.1v9.9h-2.4v-9.9c0-1.9-0.1-3.3-0.4-4c-0.3-0.7-0.8-1.3-1.4-1.8s-1.5-0.7-2.4-0.7
				c-1.1,0-2.2,0.3-3.1,1c-0.9,0.7-1.6,1.6-2.1,2.7c-0.4,1.1-0.6,3-0.6,5.6v7.1h-2.3v-9.3c0-2.2-0.1-3.7-0.4-4.5
				c-0.3-0.8-0.7-1.4-1.4-1.9c-0.7-0.5-1.5-0.7-2.4-0.7c-1.1,0-2.1,0.3-3,1c-0.9,0.7-1.6,1.5-2.1,2.6c-0.4,1.1-0.7,2.8-0.7,5.1v7.7
				h-2.3V-1888.5z"/>
		</g>
	</g>
</g>
<g id="Ebene_1_Kopie">
	<g>
		<g>
			<g>
				<path fill="#777776" d="M77.6,94.7V26.2H92l17.7,29.4c4.5,7.6,8.5,15.5,11.7,23h0.2c-0.9-9.1-1.1-18-1.1-28.5V26.2H132v68.5h-13
					l-17.9-30.2C96.7,57,92.3,48.7,88.9,41l-0.4,0.1c0.5,8.8,0.7,17.9,0.7,29.2v24.5H77.6z"/>
			</g>
			<g>
				<path fill="#777776" d="M146.4,26.2h12.5v58h28.1v10.5h-40.6V26.2z"/>
			</g>
		</g>
		<g>
			
				<rect x="225.4" y="77.1" transform="matrix(0.6947 -0.7193 0.7193 0.6947 11.1308 191.5164)" fill="#E0003C" width="11.5" height="11.2"/>
		</g>
		<g>
			<path fill="#E0003C" d="M253.3,59.8c0-19.6-11.8-34.8-31.7-34.8C202.3,25,189,39.8,189,61c0,20,12.2,34.9,31.6,34.9
				c0,0,0.1,0,0.1,0l0,0h32.6l-9.5-9.2C249.8,80.4,253.3,71.4,253.3,59.8z M202.2,60.7c0-14.1,6.6-25.6,19-25.6
				c12.5,0,18.9,12.2,18.9,25.1c0,14.3-6.8,25.6-18.9,25.6C209.2,85.8,202.2,74.7,202.2,60.7z"/>
		</g>
	</g>
	<g>
		<path fill="#777776" d="M61.6,114.4h3.1l7.6,18.3l7.8-18.3h3v20.8h-2v-18.9l-8,18.9h-1.8l-7.8-18.9v18.9h-1.9V114.4z"/>
		<path fill="#777776" d="M99.6,128H88.9c0,1.2,0.3,2.3,0.7,3.2s1.1,1.5,1.9,2s1.7,0.6,2.6,0.6c0.6,0,1.3-0.1,2.1-0.3
			c0.8-0.2,1.5-0.5,1.9-0.8l0.2,1.9c-0.7,0.3-1.5,0.5-2.4,0.6s-1.7,0.2-2.3,0.2c-1.3,0-2.4-0.3-3.5-0.9s-1.9-1.5-2.5-2.7
			s-0.8-2.6-0.8-4.2c0-2.4,0.6-4.3,1.9-5.7s2.9-2.1,4.8-2.1c1.9,0,3.4,0.7,4.4,2s1.5,3.1,1.5,5.4C99.6,127.4,99.6,127.7,99.6,128z
			 M89,126.5h8.7c0-1.7-0.4-2.9-1.2-3.8c-0.8-0.9-1.7-1.3-2.9-1.3c-0.7,0-1.4,0.2-2.1,0.6s-1.3,1-1.7,1.7
			C89.3,124.5,89,125.4,89,126.5z"/>
		<path fill="#777776" d="M115.1,135.2h-1.8l0.1-2.8c-0.6,1.1-1.3,1.9-2,2.3s-1.7,0.7-2.8,0.7c-1.4,0-2.5-0.3-3.4-1
			c-0.9-0.6-1.6-1.6-2.1-2.9s-0.8-2.7-0.8-4.1c0-1.4,0.2-2.7,0.7-3.9c0.5-1.2,1.1-2.2,2-2.8s2-1,3.3-1c1.2,0,2.2,0.3,3.1,0.9
			c0.9,0.6,1.5,1.3,1.9,2.2v-10.1h1.9V135.2z M108.5,121.5c-1.3,0-2.3,0.5-3.2,1.5c-0.8,1-1.2,2.6-1.2,4.7c0,0.9,0.1,1.7,0.3,2.5
			s0.4,1.5,0.8,2c0.3,0.5,0.8,0.9,1.3,1.2s1.2,0.5,2,0.5c0.9,0,1.7-0.2,2.4-0.7c0.7-0.5,1.3-1.2,1.7-2.2s0.6-2.1,0.6-3.5
			c0-1.9-0.5-3.4-1.4-4.5S109.8,121.5,108.5,121.5z"/>
		<path fill="#777776" d="M119.7,115.8v-2.6h2.2v2.6H119.7z M119.8,135.2v-15.1h1.9v15.1H119.8z"/>
		<path fill="#777776" d="M137.9,128h-10.7c0,1.2,0.3,2.3,0.7,3.2s1.1,1.5,1.9,2s1.7,0.6,2.6,0.6c0.6,0,1.3-0.1,2.1-0.3
			c0.8-0.2,1.5-0.5,1.9-0.8l0.2,1.9c-0.7,0.3-1.5,0.5-2.4,0.6s-1.7,0.2-2.3,0.2c-1.3,0-2.4-0.3-3.5-0.9s-1.9-1.5-2.5-2.7
			s-0.8-2.6-0.8-4.2c0-2.4,0.6-4.3,1.9-5.7s2.9-2.1,4.8-2.1c1.9,0,3.4,0.7,4.4,2s1.5,3.1,1.5,5.4C137.9,127.4,137.9,127.7,137.9,128
			z M127.3,126.5h8.7c0-1.7-0.4-2.9-1.2-3.8c-0.8-0.9-1.7-1.3-2.9-1.3c-0.7,0-1.4,0.2-2.1,0.6s-1.3,1-1.7,1.7
			C127.6,124.5,127.4,125.4,127.3,126.5z"/>
		<path fill="#777776" d="M153.4,135.2h-1.9v-9.1c0-1.2-0.1-2.1-0.3-2.7c-0.2-0.6-0.6-1.1-1.2-1.4c-0.6-0.4-1.2-0.5-2-0.5
			c-0.7,0-1.4,0.2-2,0.5s-1.1,0.8-1.6,1.3c-0.3,0.4-0.5,0.9-0.8,1.5s-0.3,1.4-0.3,2.1v8.3h-1.9v-11.7c0-1.1,0-2.2-0.1-3.4h1.8l0,3
			c0.6-1,1.2-1.7,1.9-2.2c0.9-0.7,2-1,3.2-1c0.7,0,1.4,0.1,2.1,0.4s1.1,0.6,1.5,0.9c0.4,0.4,0.7,0.8,0.9,1.2c0.2,0.4,0.4,1,0.5,1.8
			c0.1,0.4,0.1,1.2,0.1,2.3V135.2z"/>
		<path fill="#777776" d="M159.8,132.4l0.1,2.8H158v-22.5h1.9v10.1c0.4-0.9,1-1.6,1.9-2.2c0.9-0.6,1.9-0.9,3.1-0.9
			c1,0,1.9,0.2,2.7,0.6s1.4,1,1.9,1.6s0.9,1.5,1.1,2.5s0.4,2,0.4,3.1c0,1.5-0.3,2.8-0.8,4.1c-0.5,1.3-1.3,2.2-2.1,2.8
			c-0.9,0.6-2,0.9-3.4,0.9c-1.1,0-2-0.2-2.8-0.7S160.5,133.5,159.8,132.4z M169,127.3c0-1-0.2-1.9-0.5-2.9c-0.3-1-0.8-1.7-1.5-2.2
			c-0.7-0.5-1.4-0.7-2.3-0.7c-0.8,0-1.6,0.2-2.4,0.7s-1.4,1.2-1.8,2.1c-0.4,0.9-0.6,2-0.6,3.3c0,1.4,0.2,2.5,0.7,3.5s1,1.7,1.7,2.1
			c0.7,0.4,1.5,0.7,2.3,0.7c1.3,0,2.4-0.5,3.2-1.5C168.6,131.4,169,129.7,169,127.3z"/>
		<path fill="#777776" d="M186.3,128h-10.7c0,1.2,0.3,2.3,0.7,3.2s1.1,1.5,1.9,2s1.7,0.6,2.6,0.6c0.6,0,1.3-0.1,2.1-0.3
			c0.8-0.2,1.5-0.5,1.9-0.8l0.2,1.9c-0.7,0.3-1.5,0.5-2.4,0.6s-1.7,0.2-2.3,0.2c-1.3,0-2.4-0.3-3.5-0.9s-1.9-1.5-2.5-2.7
			s-0.8-2.6-0.8-4.2c0-2.4,0.6-4.3,1.9-5.7s2.9-2.1,4.8-2.1c1.9,0,3.4,0.7,4.4,2s1.5,3.1,1.5,5.4C186.3,127.4,186.3,127.7,186.3,128
			z M175.6,126.5h8.7c0-1.7-0.4-2.9-1.2-3.8c-0.8-0.9-1.7-1.3-2.9-1.3c-0.7,0-1.4,0.2-2.1,0.6s-1.3,1-1.7,1.7
			C176,124.5,175.7,125.4,175.6,126.5z"/>
		<path fill="#777776" d="M191.7,135.2h-1.8v-12.5c0-0.7,0-1.6-0.1-2.6h1.8l-0.1,3.5c0.4-1.2,1-2.2,1.9-2.8c0.6-0.5,1.4-0.8,2.4-0.8
			c0.4,0,0.8,0,1.2,0.1v2c-0.4-0.1-0.8-0.2-1.2-0.2c-0.6,0-1.1,0.1-1.5,0.2s-0.8,0.4-1.1,0.8c-0.3,0.4-0.6,0.8-0.8,1.2
			c-0.1,0.3-0.3,0.7-0.4,1.2c-0.2,0.8-0.3,1.5-0.3,2.3V135.2z"/>
		<path fill="#777776" d="M209.7,135.2h-1.8v-2.6c-0.4,0.8-1.1,1.5-2,2c-0.9,0.6-2,0.8-3.2,0.8c-1.5,0-2.6-0.4-3.4-1.2
			s-1.3-1.9-1.3-3.2c0-0.9,0.3-1.8,0.8-2.5s1.4-1.4,2.5-1.8s2.7-0.7,4.7-0.7c0.3,0,0.9,0,1.7,0c0-1.8-0.3-2.9-0.8-3.6
			s-1.5-0.9-2.8-0.9c-0.8,0-1.6,0.1-2.4,0.4s-1.4,0.6-2,1v-2c0.5-0.3,1.2-0.5,2.1-0.7c0.9-0.2,1.7-0.3,2.5-0.3
			c1.2,0,2.1,0.2,2.7,0.5c0.7,0.3,1.2,0.8,1.6,1.4c0.3,0.4,0.5,1.1,0.7,1.8c0.1,0.5,0.1,1.4,0.1,2.8v6.1
			C209.6,133.1,209.6,134,209.7,135.2z M207.7,127.6c-0.4,0-0.8,0-1.1,0c-1.3,0-2.3,0.1-3,0.2c-0.8,0.1-1.4,0.4-1.9,0.7
			s-0.9,0.7-1.2,1.1s-0.4,0.9-0.4,1.6c0,0.8,0.3,1.5,0.8,2s1.3,0.8,2.4,0.8c0.6,0,1.2-0.1,1.8-0.3c0.5-0.2,1-0.5,1.3-0.8
			s0.6-0.7,0.8-1c0.2-0.3,0.3-0.8,0.4-1.2C207.6,130,207.6,129,207.7,127.6z"/>
		<path fill="#777776" d="M215.4,121.7h-3.1v-1.6h3.1v-3.8l1.9-0.7v4.5h3.6v1.6h-3.6v9.5c0,0.9,0.2,1.6,0.5,2
			c0.4,0.4,0.9,0.6,1.6,0.6c0.5,0,1-0.1,1.7-0.4l0.1,1.6c-0.7,0.3-1.5,0.4-2.4,0.4c-1.1,0-1.9-0.3-2.5-1c-0.6-0.6-0.9-1.6-0.9-2.9
			V121.7z"/>
		<path fill="#777776" d="M224.2,120.1h1.9v9.5c0,1,0.1,1.8,0.4,2.4s0.7,1.1,1.3,1.4s1.2,0.5,1.8,0.5c0.8,0,1.5-0.3,2.3-0.8
			c0.7-0.5,1.3-1.2,1.7-2.1s0.5-1.7,0.5-2.6v-8.3h1.9v11.7c0,1.1,0,2.2,0.1,3.4h-1.8l0-3c-0.5,1.1-1.3,1.9-2.2,2.4
			c-0.9,0.6-1.9,0.8-3,0.8c-0.9,0-1.7-0.2-2.4-0.6c-0.7-0.4-1.3-0.9-1.7-1.5c-0.4-0.6-0.7-1.3-0.8-2.1c-0.1-0.4-0.1-1.2-0.1-2.4
			V120.1z"/>
		<path fill="#777776" d="M252.9,135.2H251v-9.1c0-1.2-0.1-2.1-0.3-2.7c-0.2-0.6-0.6-1.1-1.2-1.4c-0.6-0.4-1.2-0.5-2-0.5
			c-0.7,0-1.4,0.2-2,0.5s-1.1,0.8-1.6,1.3c-0.3,0.4-0.5,0.9-0.8,1.5s-0.3,1.4-0.3,2.1v8.3h-1.9v-11.7c0-1.1,0-2.2-0.1-3.4h1.8l0,3
			c0.6-1,1.2-1.7,1.9-2.2c0.9-0.7,2-1,3.2-1c0.7,0,1.4,0.1,2.1,0.4s1.1,0.6,1.5,0.9c0.4,0.4,0.7,0.8,0.9,1.2c0.2,0.4,0.4,1,0.5,1.8
			c0.1,0.4,0.1,1.2,0.1,2.3V135.2z"/>
		<path fill="#777776" d="M269.4,120.1l0,12.1c0,2.3-0.1,4-0.4,5c-0.3,1-0.7,1.9-1.3,2.5s-1.4,1.1-2.3,1.5c-1,0.4-2,0.5-3,0.5
			c-0.6,0-1.4-0.1-2.2-0.2s-1.7-0.4-2.5-0.7l0.1-2c0.7,0.4,1.5,0.6,2.3,0.8s1.7,0.3,2.4,0.3c0.9,0,1.7-0.2,2.4-0.5
			c0.7-0.3,1.2-0.8,1.6-1.3s0.7-1.3,0.9-2.2c0.1-0.7,0.2-2,0.3-3.9c-0.4,0.9-1,1.7-1.8,2.3c-0.8,0.6-1.8,0.9-3,0.9
			c-1.9,0-3.4-0.7-4.6-2s-1.8-3.3-1.8-5.7c0-1.2,0.1-2.2,0.4-3.1c0.3-0.9,0.7-1.7,1.3-2.4c0.6-0.7,1.2-1.1,1.8-1.4
			c0.9-0.4,1.9-0.6,3.1-0.6c2.4,0,3.9,0.9,4.7,2.6l-0.1-2.4H269.4z M258.4,127.3c0,1.8,0.3,3.2,1,4.3c0.8,1.3,2,1.9,3.5,1.9
			c1.3,0,2.5-0.5,3.4-1.6c0.9-1.1,1.4-2.6,1.4-4.7c0-2-0.4-3.5-1.3-4.4s-1.9-1.3-3.2-1.3c-1.3,0-2.5,0.5-3.4,1.5
			S258.4,125.4,258.4,127.3z"/>
		<path fill="#777776" d="M76.6,171.2v-20.8h2.5l10.6,18.3v-18.3h1.9v20.8h-2.5l-10.7-18.3v18.3H76.6z"/>
		<path fill="#777776" d="M96.4,151.8v-2.6h2.2v2.6H96.4z M96.5,171.2v-15.1h1.9v15.1H96.5z"/>
		<path fill="#777776" d="M114.7,164H104c0,1.2,0.3,2.3,0.7,3.2s1.1,1.5,1.9,2s1.7,0.6,2.6,0.6c0.6,0,1.3-0.1,2.1-0.3
			c0.8-0.2,1.5-0.5,1.9-0.8l0.2,1.9c-0.7,0.3-1.5,0.5-2.4,0.6s-1.7,0.2-2.3,0.2c-1.3,0-2.4-0.3-3.5-0.9s-1.9-1.5-2.5-2.7
			s-0.8-2.6-0.8-4.2c0-2.4,0.6-4.3,1.9-5.7s2.9-2.1,4.8-2.1c1.9,0,3.4,0.7,4.4,2s1.5,3.1,1.5,5.4C114.7,163.4,114.7,163.7,114.7,164
			z M104.1,162.5h8.7c0-1.7-0.4-2.9-1.2-3.8c-0.8-0.9-1.7-1.3-2.9-1.3c-0.7,0-1.4,0.2-2.1,0.6s-1.3,1-1.7,1.7
			C104.4,160.5,104.1,161.4,104.1,162.5z"/>
		<path fill="#777776" d="M130.2,171.2h-1.8l0.1-2.8c-0.6,1.1-1.3,1.9-2,2.3s-1.7,0.7-2.8,0.7c-1.4,0-2.5-0.3-3.4-1
			c-0.9-0.6-1.6-1.6-2.1-2.9s-0.8-2.7-0.8-4.1c0-1.4,0.2-2.7,0.7-3.9c0.5-1.2,1.1-2.2,2-2.8s2-1,3.3-1c1.2,0,2.2,0.3,3.1,0.9
			c0.9,0.6,1.5,1.3,1.9,2.2v-10.1h1.9V171.2z M123.6,157.5c-1.3,0-2.3,0.5-3.2,1.5c-0.8,1-1.2,2.6-1.2,4.7c0,0.9,0.1,1.7,0.3,2.5
			s0.4,1.5,0.8,2c0.3,0.5,0.8,0.9,1.3,1.2s1.2,0.5,2,0.5c0.9,0,1.7-0.2,2.4-0.7c0.7-0.5,1.3-1.2,1.7-2.2s0.6-2.1,0.6-3.5
			c0-1.9-0.5-3.4-1.4-4.5S124.9,157.5,123.6,157.5z"/>
		<path fill="#777776" d="M146.3,164h-10.7c0,1.2,0.3,2.3,0.7,3.2s1.1,1.5,1.9,2s1.7,0.6,2.6,0.6c0.6,0,1.3-0.1,2.1-0.3
			c0.8-0.2,1.5-0.5,1.9-0.8l0.2,1.9c-0.7,0.3-1.5,0.5-2.4,0.6s-1.7,0.2-2.3,0.2c-1.3,0-2.4-0.3-3.5-0.9s-1.9-1.5-2.5-2.7
			s-0.8-2.6-0.8-4.2c0-2.4,0.6-4.3,1.9-5.7s2.9-2.1,4.8-2.1c1.9,0,3.4,0.7,4.4,2s1.5,3.1,1.5,5.4C146.4,163.4,146.4,163.7,146.3,164
			z M135.7,162.5h8.7c0-1.7-0.4-2.9-1.2-3.8c-0.8-0.9-1.7-1.3-2.9-1.3c-0.7,0-1.4,0.2-2.1,0.6s-1.3,1-1.7,1.7
			C136.1,160.5,135.8,161.4,135.7,162.5z"/>
		<path fill="#777776" d="M151.8,171.2h-1.8v-12.5c0-0.7,0-1.6-0.1-2.6h1.8l-0.1,3.5c0.4-1.2,1-2.2,1.9-2.8c0.6-0.5,1.4-0.8,2.4-0.8
			c0.4,0,0.8,0,1.2,0.1v2c-0.4-0.1-0.8-0.2-1.2-0.2c-0.6,0-1.1,0.1-1.5,0.2s-0.8,0.4-1.1,0.8c-0.3,0.4-0.6,0.8-0.8,1.2
			c-0.1,0.3-0.3,0.7-0.4,1.2c-0.2,0.8-0.3,1.5-0.3,2.3V171.2z"/>
		<path fill="#777776" d="M158.5,170.7l0.2-1.9c1.4,0.7,2.7,1,3.9,1c1,0,1.9-0.3,2.5-0.8s1-1.2,1-1.8c0-0.4-0.1-0.7-0.2-1
			c-0.2-0.3-0.4-0.6-0.8-0.9c-0.2-0.2-0.7-0.4-1.4-0.8c-2.2-1.1-3.6-1.9-4.1-2.5c-0.5-0.6-0.8-1.3-0.8-2.2c0-1.3,0.5-2.2,1.4-2.9
			s2.1-1,3.5-1c0.6,0,1.3,0.1,2.1,0.2s1.3,0.3,1.8,0.5l-0.2,1.7c-1.1-0.5-2.3-0.8-3.6-0.8c-1,0-1.7,0.2-2.2,0.7s-0.8,1-0.8,1.5
			c0,0.4,0.1,0.7,0.3,1c0.2,0.3,0.6,0.7,1.2,1c0.3,0.2,1.1,0.6,2.4,1.2c1.4,0.6,2.3,1.3,2.8,1.9c0.5,0.6,0.7,1.4,0.7,2.3
			c0,1.3-0.4,2.3-1.3,3c-1.1,0.9-2.6,1.4-4.4,1.4C161.2,171.5,159.9,171.2,158.5,170.7z"/>
		<path fill="#777776" d="M182.1,171.2h-1.8v-2.6c-0.4,0.8-1.1,1.5-2,2c-0.9,0.6-2,0.8-3.2,0.8c-1.5,0-2.6-0.4-3.4-1.2
			s-1.3-1.9-1.3-3.2c0-0.9,0.3-1.8,0.8-2.5s1.4-1.4,2.5-1.8s2.7-0.7,4.7-0.7c0.3,0,0.9,0,1.7,0c0-1.8-0.3-2.9-0.8-3.6
			s-1.5-0.9-2.8-0.9c-0.8,0-1.6,0.1-2.4,0.4s-1.4,0.6-2,1v-2c0.5-0.3,1.2-0.5,2.1-0.7c0.9-0.2,1.7-0.3,2.5-0.3
			c1.2,0,2.1,0.2,2.7,0.5c0.7,0.3,1.2,0.8,1.6,1.4c0.3,0.4,0.5,1.1,0.7,1.8c0.1,0.5,0.1,1.4,0.1,2.8v6.1
			C181.9,169.1,182,170,182.1,171.2z M180.1,163.6c-0.4,0-0.8,0-1.1,0c-1.3,0-2.3,0.1-3,0.2c-0.8,0.1-1.4,0.4-1.9,0.7
			s-0.9,0.7-1.2,1.1s-0.4,0.9-0.4,1.6c0,0.8,0.3,1.5,0.8,2s1.3,0.8,2.4,0.8c0.6,0,1.2-0.1,1.8-0.3c0.5-0.2,1-0.5,1.3-0.8
			s0.6-0.7,0.8-1c0.2-0.3,0.3-0.8,0.4-1.2C179.9,166,180,165,180.1,163.6z"/>
		<path fill="#777776" d="M196.7,156.4l-0.1,1.9c-1.1-0.5-2.2-0.7-3.3-0.7c-1.7,0-3.1,0.5-4.1,1.6c-1.1,1.1-1.6,2.5-1.6,4.3
			c0,1.2,0.2,2.2,0.7,3.2s1.1,1.7,2,2.2c0.9,0.5,1.9,0.8,3,0.8c1.2,0,2.3-0.2,3.4-0.7l0.2,1.8c-1.1,0.4-2.4,0.6-3.8,0.6
			c-2.2,0-3.9-0.7-5.3-2.1c-1.4-1.4-2.1-3.3-2.1-5.7c0-1.5,0.3-2.9,0.9-4.1c0.6-1.2,1.5-2.1,2.7-2.7c1.2-0.6,2.5-1,3.9-1
			C194.2,155.8,195.4,156,196.7,156.4z"/>
		<path fill="#777776" d="M211.1,171.2h-1.9v-9.1c0-1.2-0.1-2-0.4-2.6c-0.2-0.6-0.6-1.1-1.2-1.4c-0.6-0.3-1.2-0.5-1.9-0.5
			c-0.7,0-1.4,0.2-2,0.5s-1.2,0.8-1.6,1.3c-0.3,0.4-0.5,0.9-0.8,1.5c-0.2,0.7-0.3,1.3-0.3,2.1v8.3h-1.9v-22.5h1.8V159
			c0.6-1,1.2-1.8,1.9-2.2c0.9-0.6,2-1,3.2-1c0.8,0,1.4,0.1,2.1,0.4s1.1,0.5,1.5,0.9s0.7,0.8,0.9,1.2c0.2,0.4,0.4,1,0.5,1.8
			c0.1,0.4,0.1,1.2,0.1,2.4V171.2z"/>
		<path fill="#777776" d="M214.4,170.7l0.2-1.9c1.4,0.7,2.7,1,3.9,1c1,0,1.9-0.3,2.5-0.8s1-1.2,1-1.8c0-0.4-0.1-0.7-0.2-1
			c-0.2-0.3-0.4-0.6-0.8-0.9c-0.2-0.2-0.7-0.4-1.4-0.8c-2.2-1.1-3.6-1.9-4.1-2.5c-0.5-0.6-0.8-1.3-0.8-2.2c0-1.3,0.5-2.2,1.4-2.9
			s2.1-1,3.5-1c0.6,0,1.3,0.1,2.1,0.2s1.3,0.3,1.8,0.5l-0.2,1.7c-1.1-0.5-2.3-0.8-3.6-0.8c-1,0-1.7,0.2-2.2,0.7s-0.8,1-0.8,1.5
			c0,0.4,0.1,0.7,0.3,1c0.2,0.3,0.6,0.7,1.2,1c0.3,0.2,1.1,0.6,2.4,1.2c1.4,0.6,2.3,1.3,2.8,1.9c0.5,0.6,0.7,1.4,0.7,2.3
			c0,1.3-0.4,2.3-1.3,3c-1.1,0.9-2.6,1.4-4.4,1.4C217.1,171.5,215.8,171.2,214.4,170.7z"/>
		<path fill="#777776" d="M239,164h-10.7c0,1.2,0.3,2.3,0.7,3.2s1.1,1.5,1.9,2s1.7,0.6,2.6,0.6c0.6,0,1.3-0.1,2.1-0.3
			c0.8-0.2,1.5-0.5,1.9-0.8l0.2,1.9c-0.7,0.3-1.5,0.5-2.4,0.6s-1.7,0.2-2.3,0.2c-1.3,0-2.4-0.3-3.5-0.9s-1.9-1.5-2.5-2.7
			s-0.8-2.6-0.8-4.2c0-2.4,0.6-4.3,1.9-5.7s2.9-2.1,4.8-2.1c1.9,0,3.4,0.7,4.4,2s1.5,3.1,1.5,5.4C239,163.4,239,163.7,239,164z
			 M228.3,162.5h8.7c0-1.7-0.4-2.9-1.2-3.8c-0.8-0.9-1.7-1.3-2.9-1.3c-0.7,0-1.4,0.2-2.1,0.6s-1.3,1-1.7,1.7
			C228.7,160.5,228.4,161.4,228.3,162.5z"/>
		<path fill="#777776" d="M254.5,171.2h-1.9v-9.1c0-1.2-0.1-2.1-0.3-2.7c-0.2-0.6-0.6-1.1-1.2-1.4c-0.6-0.4-1.2-0.5-2-0.5
			c-0.7,0-1.4,0.2-2,0.5s-1.1,0.8-1.6,1.3c-0.3,0.4-0.5,0.9-0.8,1.5s-0.3,1.4-0.3,2.1v8.3h-1.9v-11.7c0-1.1,0-2.2-0.1-3.4h1.8l0,3
			c0.6-1,1.2-1.7,1.9-2.2c0.9-0.7,2-1,3.2-1c0.7,0,1.4,0.1,2.1,0.4s1.1,0.6,1.5,0.9c0.4,0.4,0.7,0.8,0.9,1.2c0.2,0.4,0.4,1,0.5,1.8
			c0.1,0.4,0.1,1.2,0.1,2.3V171.2z"/>
	</g>
</g>
<g id="Ebene_2">
</g>
</svg>
